<svg xmlns="http://www.w3.org/2000/svg" viewBox="0 0 100 100"><path fill="#fff" d="M50 4.5C24.91 4.5 4.5 24.91 4.5 50S24.91 95.5 50 95.5 95.5 75.09 95.5 50 75.09 4.5 50 4.5ZM27.84 55.7c0 1.1-.9 2-2 2s-2-.9-2-2V44.32c0-1.1.9-2 2-2s2 .9 2 2V55.7Zm6.94-2.2c0 1.1-.9 2-2 2s-2-.9-2-2v-6.97c0-1.1.9-2 2-2s2 .9 2 2v6.97Zm6.91 7.41c0 1.1-.9 2-2 2s-2-.9-2-2v-21.8c0-1.1.9-2 2-2s2 .9 2 2v21.8Zm6.86-2.41c0 1.1-.9 2-2 2s-2-.9-2-2V41.52c0-1.1.9-2 2-2s2 .9 2 2V58.5Zm6.92 3.41c0 1.1-.9 2-2 2s-2-.9-2-2V38.1c0-1.1.9-2 2-2s2 .9 2 2v23.81Zm6.85 3.14c0 1.1-.9 2-2 2s-2-.9-2-2V34.96c0-1.1.9-2 2-2s2 .9 2 2v30.09Zm6.91-6.98c0 1.1-.9 2-2 2s-2-.9-2-2V41.93c0-1.1.9-2 2-2s2 .9 2 2v16.14Zm6.92-4.1c0 1.1-.9 2-2 2s-2-.9-2-2v-7.94c0-1.1.9-2 2-2s2 .9 2 2v7.94Z"/></svg>