<svg xmlns="http://www.w3.org/2000/svg" viewBox="0 0 100 100"><path fill="#fff" d="M50 4.5C24.91 4.5 4.5 24.91 4.5 50S24.91 95.5 50 95.5 95.5 75.09 95.5 50 75.09 4.5 50 4.5Zm18.26 52.54a6.113 6.113 0 0 1-2.45 4.37c-.34.25-1.15.7-1.4.77-.07.02-.18.06-.26.1-.31.14-.91.26-1.76.35-.77.08-24.73.04-25.3-.04-2.75-.39-4.86-2.42-5.31-5.13-.08-.52-.09-.86-.09-7.49s0-6.97.09-7.49c.22-1.28.75-2.32 1.66-3.28.98-1.01 2.34-1.69 3.69-1.84.59-.06 25.03-.07 25.63 0 1.16.12 2.3.58 3.22 1.32a6.094 6.094 0 0 1 2.27 4.26c.06.73.06 13.36 0 14.08Z"/><path fill="#fff" d="M56.33 49.29c-.5-.25-1.45-.74-2.11-1.08-.66-.34-1.55-.8-2-1.02-.93-.48-2.3-1.18-4.08-2.09-.69-.36-1.41-.73-1.6-.82-.18-.09-.37-.18-.42-.2-.13-.03-.29.03-.35.15-.04.07-.05 1.84-.05 5.77q0 5.67.1 5.8c.05.07.14.12.19.12.1 0 .58-.23 2.36-1.15.52-.27 1.78-.92 2.82-1.45 1.03-.53 2.35-1.2 2.93-1.5.58-.3 1.51-.77 2.07-1.06.57-.29 1.05-.56 1.09-.63.17-.22.06-.32-.96-.84Z"/></svg>