<svg xmlns="http://www.w3.org/2000/svg" viewBox="0 0 100 100"><path fill="#fff" d="M50 4.5C24.91 4.5 4.5 24.91 4.5 50S24.91 95.5 50 95.5 95.5 75.09 95.5 50 75.09 4.5 50 4.5ZM38.37 45.29c.78-.78 2.05-.78 2.83 0l6.8 6.8V30.82c0-1.1.9-2 2-2s2 .9 2 2v21.35l6.8-6.8c.78-.78 2.05-.78 2.83 0 .78.78.78 2.05 0 2.83L51.45 58.38a1.983 1.983 0 0 1-2.82 0L38.37 48.12c-.78-.78-.78-2.05 0-2.83ZM67.6 64.94c0 1.1-.9 2-2 2H34.4c-1.1 0-2-.9-2-2v-7.98c0-1.1.9-2 2-2s2 .9 2 2v5.98h27.2v-5.98c0-1.1.9-2 2-2s2 .9 2 2v7.98Z"/></svg>